<svg xmlns="http://www.w3.org/2000/svg" viewBox="0 0 96 96">
<rect width="96" height="96" rx="20" fill="#0d1117"/>
<!-- pole -->
<line x1="18" y1="78" x2="18" y2="62" stroke="#2ea043" stroke-width="1.5"/><rect x="14" y="62" width="8" height="12" rx="1" fill="#2ea043"/>
<line x1="30" y1="68" x2="30" y2="44" stroke="#2ea043" stroke-width="1.5"/><rect x="26" y="48" width="8" height="16" rx="1" fill="#2ea043"/>
<line x1="42" y1="52" x2="42" y2="24" stroke="#2ea043" stroke-width="1.5"/><rect x="38" y="28" width="8" height="18" rx="1" fill="#2ea043"/>
<!-- flag -->
<line x1="52" y1="36" x2="52" y2="26" stroke="#da3633" stroke-width="1.5"/><rect x="49" y="28" width="6" height="6" rx="1" fill="#da3633"/>
<line x1="60" y1="38" x2="60" y2="30" stroke="#da3633" stroke-width="1.5"/><rect x="57" y="31" width="6" height="5" rx="1" fill="#da3633"/>
<!-- breakout -->
<line x1="70" y1="34" x2="70" y2="14" stroke="#2ea043" stroke-width="1.5"/><rect x="66" y="16" width="8" height="14" rx="1" fill="#2ea043"/>
<line x1="80" y1="20" x2="80" y2="8" stroke="#2ea043" stroke-width="1.5"/><rect x="76" y="10" width="8" height="8" rx="1" fill="#2ea043"/>
</svg>
